<svg width="1754" height="640" xmlns="http://www.w3.org/2000/svg" xmlns:xlink="http://www.w3.org/1999/xlink" overflow="hidden"><defs><clipPath id="clip0"><rect x="0" y="365" width="1754" height="640"/></clipPath></defs><g clip-path="url(#clip0)" transform="matrix(1 0 0 1 0 -365)"><rect x="0" y="365" width="1754" height="640" fill="#FFFFFF"/><rect x="290.5" y="649.5" width="99" height="66" stroke="#000000" stroke-width="4.58333" stroke-miterlimit="8" fill="#FFFFFF"/><text font-family="Cambria Math,Cambria Math_MSFontService,sans-serif" font-weight="400" font-size="32" transform="translate(323.75 692)">ğ‘’<tspan font-size="32" x="16.0417" y="0">ğ‘</tspan></text><rect x="471.5" y="552.5" width="99" height="66" stroke="#000000" stroke-width="4.58333" stroke-miterlimit="8" fill="#FFFFFF"/><text font-family="Cambria Math,Cambria Math_MSFontService,sans-serif" font-weight="400" font-size="32" transform="translate(503.923 595)">ğ¾<tspan font-size="23" x="19.7771" y="7">ğ‘’</tspan></text><rect x="471.5" y="650.5" width="99" height="66" stroke="#000000" stroke-width="4.58333" stroke-miterlimit="8" fill="#FFFFFF"/><text font-family="Cambria Math,Cambria Math_MSFontService,sans-serif" font-weight="400" font-size="32" transform="translate(503.923 694)">ğ¾<tspan font-size="23" x="19.7771" y="6">ğ‘’ğ‘</tspan></text><rect x="1465.5" y="598.5" width="99" height="66" stroke="#000000" stroke-width="4.58333" stroke-miterlimit="8" fill="#FFFFFF"/><text font-family="Cambria Math,Cambria Math_MSFontService,sans-serif" font-weight="400" font-size="32" transform="translate(1498.1 641)">ğ¾<tspan font-size="23" x="19.7771" y="7">ğ‘¢</tspan></text><rect x="1038.5" y="654.5" width="316" height="164" stroke="#000000" stroke-width="4.58333" stroke-miterlimit="8" fill="#FFFFFF"/><text font-family="Calibri,Calibri_MSFontService,sans-serif" font-weight="700" font-size="32" transform="matrix(1 0 0 1 1088.28 747)">Fuzzy Controller</text><rect x="1038.5" y="443.5" width="316" height="164" stroke="#000000" stroke-width="4.58333" stroke-miterlimit="8" fill="#FFFFFF"/><text font-family="Calibri,Calibri_MSFontService,sans-serif" font-weight="700" font-size="32" transform="matrix(1 0 0 1 1111.2 516)">Proportional <tspan font-size="32" x="17.1875" y="39">Controller</tspan></text><path d="M656.5 579.834C656.5 564.738 668.738 552.5 683.834 552.5L860.166 552.5C875.262 552.5 887.5 564.738 887.5 579.834L887.5 689.166C887.5 704.262 875.262 716.5 860.166 716.5L683.834 716.5C668.738 716.5 656.5 704.262 656.5 689.166Z" stroke="#000000" stroke-width="4.58333" stroke-miterlimit="8" stroke-dasharray="13.75 4.58333" fill="#FFFFFF" fill-rule="evenodd"/><text font-family="Times New Roman,Times New Roman_MSFontService,sans-serif" font-weight="400" font-size="32" transform="matrix(1 0 0 1 726.709 626)">Switch<tspan font-size="32" x="-20.625" y="38">Threshold</tspan></text><path d="M887.5 632.781 901.25 632.781 901.25 636.219 887.5 636.219ZM911.563 632.781 925.313 632.781 925.313 636.219 911.563 636.219ZM935.625 632.781 949.375 632.781 949.375 636.219 935.625 636.219ZM959.688 632.781 962.907 632.781C963.856 632.781 964.626 633.551 964.626 634.5L964.626 645.031 961.188 645.031 961.188 634.5 962.907 636.219 959.688 636.219ZM964.626 655.343 964.626 669.093 961.188 669.093 961.188 655.343ZM964.626 679.406 964.626 693.156 961.188 693.156 961.188 679.406ZM964.626 703.468 964.626 717.218 961.188 717.218 961.188 703.468ZM964.626 727.531 964.626 736.806 962.907 735.087 967.382 735.087 967.382 738.525 962.907 738.525C961.958 738.525 961.188 737.755 961.188 736.806L961.188 727.531ZM977.694 735.087 991.444 735.087 991.444 738.525 977.694 738.525ZM1001.76 735.087 1015.51 735.087 1015.51 738.525 1001.76 738.525ZM1019.98 727.639 1038.31 736.806 1019.98 745.973Z"/><path d="M0-1.71875 13.75-1.71875 13.75 1.71875 0 1.71875ZM24.0625-1.71875 37.8125-1.71875 37.8125 1.71875 24.0625 1.71875ZM48.125-1.71875 61.875-1.71875 61.875 1.71875 48.125 1.71875ZM72.1875-1.71875 75.4067-1.71875C76.3559-1.71875 77.1254-0.949239 77.1254 0L77.1254 10.5308 73.6879 10.5308 73.6879 0 75.4067 1.71875 72.1875 1.71875ZM77.1254 20.8433 77.1254 34.5933 73.6879 34.5933 73.6879 20.8433ZM77.1254 44.9058 77.1254 58.6558 73.6879 58.6558 73.6879 44.9058ZM77.1254 68.9683 77.1254 82.7183 73.6879 82.7183 73.6879 68.9683ZM77.1254 93.0308 77.1254 106.781 73.6879 106.781 73.6879 93.0308ZM83.687 107.094 97.437 107.094 97.437 110.532 83.687 110.532ZM107.749 107.094 121.499 107.094 121.499 110.532 107.749 110.532ZM131.812 107.094 137.063 107.094 137.063 110.532 131.812 110.532ZM132.48 99.6464 150.813 108.813 132.48 117.98Z" transform="matrix(1 0 0 -1 887.5 634.313)"/><path d="M1354.5 523.208 1412.49 523.208 1412.49 631.06 1410.2 628.768 1452.15 628.768 1452.15 633.351 1407.91 633.351 1407.91 525.5 1410.2 527.792 1354.5 527.792ZM1447.56 621.893 1465.9 631.06 1447.56 640.226Z"/><path d="M0-2.29167 57.9905-2.29167 57.9905 105.559 55.6989 103.268 97.6478 103.268 97.6478 107.851 53.4072 107.851 53.4072 0 55.6989 2.29167 0 2.29167ZM93.0644 96.3927 111.398 105.559 93.0644 114.726Z" transform="matrix(1 0 0 -1 1354.5 737.059)"/><path d="M570.5 583.208 639.25 583.208 639.25 587.792 570.5 587.792ZM634.667 576.333 653 585.5 634.667 594.667Z"/><path d="M570.506 681.208 639.256 681.382 639.244 685.965 570.494 685.792ZM634.69 674.495 653 683.708 634.644 692.829Z"/><path d="M389.542 680.209 457.311 681.448 457.228 686.03 389.458 684.791ZM452.855 674.49 471.017 683.99 452.519 692.82Z"/><path d="M199.5 583.208 457.391 583.209 457.391 587.792 199.5 587.792ZM452.808 576.334 471.141 585.5 452.808 594.667Z"/><path d="M133.5 585.5C133.5 567.274 148.274 552.5 166.5 552.5 184.725 552.5 199.5 567.274 199.5 585.5 199.5 603.725 184.725 618.5 166.5 618.5 148.274 618.5 133.5 603.725 133.5 585.5Z" stroke="#000000" stroke-width="4.58333" stroke-miterlimit="8" fill="#FFFFFF" fill-rule="evenodd"/><path d="M48.5 583.208 119.564 583.208 119.564 587.792 48.5 587.792ZM114.98 576.333 133.314 585.5 114.98 594.667Z"/><text font-family="Times New Roman,Times New Roman_MSFontService,sans-serif" font-weight="400" font-size="32" transform="matrix(1 0 0 1 52.1502 557)">target<tspan font-size="32" x="255.47" y="10">e</tspan></text><path d="M1564.5 629.208 1714.97 629.209 1714.97 633.792 1564.5 633.792ZM1710.38 622.334 1728.72 631.5 1710.38 640.667Z"/><text font-family="Times New Roman,Times New Roman_MSFontService,sans-serif" font-weight="400" font-size="32" transform="matrix(1 0 0 1 1596.3 609)">output</text><path d="M0 0 1.88025 281.497" stroke="#000000" stroke-width="4.58333" stroke-miterlimit="8" fill="none" fill-rule="evenodd" transform="matrix(-1 0 0 1 1638.38 634.5)"/><path d="M199.5 583.208 247.353 583.208 247.353 682.386 245.062 680.094 276.874 680.094 276.874 684.677 242.77 684.677 242.77 585.5 245.062 587.792 199.5 587.792ZM272.29 673.219 290.624 682.386 272.29 691.552Z"/><path d="M166.5 915.5 1636.65 915.5" stroke="#000000" stroke-width="4.58333" stroke-miterlimit="8" fill="none" fill-rule="evenodd"/><path d="M2.29166-0.00589114 3.0214 283.866-1.56191 283.877-2.29166 0.00589114ZM9.8846 279.265 0.765092 297.621-8.44867 279.312Z" transform="matrix(1 0 0 -1 166.5 916.121)"/><text font-family="Cambria Math,Cambria Math_MSFontService,sans-serif" font-weight="400" font-size="48" transform="translate(149.017 598)">âˆ‘</text></g></svg>